<svg width="14" height="23" viewBox="0 0 14 23" fill="currentColor" xmlns="http://www.w3.org/2000/svg">
  <path
    d="M0.380149 10.6025L10.9849 0.367436C11.2301 0.130519 11.5576 0 11.9067 0C12.2558 0 12.5832 0.130519 12.8285 0.367436L13.6095 1.12101C14.1176 1.61204 14.1176 2.41012 13.6095 2.90041L4.70441 11.4952L13.6193 20.0996C13.8646 20.3365 14 20.6523 14 20.9891C14 21.3263 13.8646 21.6421 13.6193 21.8792L12.8384 22.6326C12.5929 22.8695 12.2657 23 11.9166 23C11.5674 23 11.24 22.8695 10.9947 22.6326L0.380149 12.3881C0.134294 12.1504 -0.000741959 11.8331 3.24249e-05 11.4958C-0.000741959 11.1572 0.134294 10.84 0.380149 10.6025Z"
    fill="currentColor" />
</svg>