<svg width="19" height="24" viewBox="0 0 19 24" fill="currentColor" xmlns="http://www.w3.org/2000/svg">
    <path
        d="M5.51792 17.7091H0.776142C0.0982122 17.7091 -0.265647 18.5358 0.228901 19.0305L4.97068 23.7723C5.45841 24.2599 6.29209 23.912 6.29209 23.2251V18.4833C6.29209 18.0555 5.94565 17.7091 5.51792 17.7091ZM15.9692 0H2.32448C1.04178 0 0.00197337 1.03981 0.00197337 2.32251V16.2803C0.00197337 16.709 0.350349 17.0559 0.779529 17.0544C1.49176 17.0515 2.94865 17.0559 6.01 17.0559C6.52676 17.0559 6.9453 17.4744 6.9453 17.9912C6.9453 21.053 6.94965 22.5094 6.94675 23.2217C6.9453 23.6508 7.29222 23.9992 7.72092 23.9992H15.9692C17.2519 23.9992 18.2917 22.9594 18.2917 21.6767V2.32251C18.2917 1.03981 17.2519 0 15.9692 0V0ZM9.1149 2.43718C10.552 2.43718 11.721 3.60617 11.721 5.04322C11.721 6.47979 10.552 7.64879 9.1149 7.64879C7.67834 7.64879 6.50934 6.47979 6.50934 5.04322C6.50934 3.60617 7.67834 2.43718 9.1149 2.43718ZM5.19519 10.3792C5.19519 9.71001 5.59002 9.10083 6.20113 8.82794C7.55084 8.2254 7.53047 8.21248 7.74463 8.21248H10.4678C10.6856 8.21248 10.6767 8.23193 12.0113 8.82794C12.6229 9.10083 13.0177 9.71001 13.0177 10.3792V11.4408C13.0177 11.8685 12.6712 12.2149 12.2435 12.2149H5.96936C5.54163 12.2149 5.19519 11.8685 5.19519 11.4408V10.3792ZM13.5015 20.3703H9.00168C8.57395 20.3703 8.22751 20.0239 8.22751 19.5961C8.22751 19.1684 8.57395 18.822 9.00168 18.822H13.5015C13.9293 18.822 14.2757 19.1684 14.2757 19.5961C14.2757 20.0239 13.9293 20.3703 13.5015 20.3703ZM13.5015 15.9188H4.74376C4.31603 15.9188 3.96959 15.5724 3.96959 15.1447C3.96959 14.7169 4.31603 14.3705 4.74376 14.3705H13.5015C13.9293 14.3705 14.2757 14.7169 14.2757 15.1447C14.2757 15.5724 13.9293 15.9188 13.5015 15.9188Z"
        fill="currentColor" />
</svg>