<svg viewBox="0 0 51 50" fill="currentColor" xmlns="http://www.w3.org/2000/svg">
    <path
        d="M25.8875 0C12.075 0 0.887512 11.4781 0.887512 25.6344C0.887512 36.9625 8.05001 46.5689 17.9813 49.9558C19.2313 50.1971 19.6896 49.4036 19.6896 48.7232C19.6896 48.1145 19.6688 46.5015 19.6583 44.3646C12.7042 45.9102 11.2375 40.9255 11.2375 40.9255C10.1 37.9668 8.45626 37.1755 8.45626 37.1755C6.19168 35.5864 8.63126 35.619 8.63126 35.619C11.1417 35.7973 12.4604 38.2603 12.4604 38.2603C14.6896 42.1798 18.3125 41.0472 19.7417 40.3929C19.9667 38.7342 20.6104 37.606 21.325 36.9647C15.7729 36.3234 9.93751 34.1191 9.93751 24.2975C9.93751 21.4997 10.9063 19.2128 12.5104 17.4193C12.2292 16.7715 11.3854 14.165 12.7292 10.6346C12.7292 10.6346 14.8229 9.94768 19.6042 13.2628C21.6042 12.6933 23.7292 12.4107 25.8542 12.3976C27.9792 12.4107 30.1042 12.6933 32.1042 13.2628C36.8542 9.94768 38.9479 10.6346 38.9479 10.6346C40.2917 14.165 39.4479 16.7715 39.1979 17.4193C40.7917 19.2128 41.7604 21.4997 41.7604 24.2975C41.7604 34.1451 35.9167 36.3125 30.3542 36.9429C31.2292 37.7125 32.0417 39.2842 32.0417 41.6863C32.0417 45.1167 32.0104 47.8732 32.0104 48.7058C32.0104 49.3775 32.4479 50.1797 33.7292 49.9232C43.7313 46.558 50.8875 36.9451 50.8875 25.6344C50.8875 11.4781 39.6938 0 25.8875 0Z"
        fill="currentColor" />
</svg>