<svg viewBox="0 0 51 50" fill="currentColor" xmlns="http://www.w3.org/2000/svg">
    <path
        d="M16.5133 41.3086H9.67734V19.2383H16.5133V41.3086ZM17.1953 12.2066C17.1953 9.9968 15.4024 8.20312 13.1937 8.20312C10.9766 8.20312 9.18829 9.9968 9.18829 12.2066C9.18829 14.4173 10.9766 16.2109 13.1937 16.2109C15.4024 16.2109 17.1953 14.4173 17.1953 12.2066ZM42.0984 29.1664C42.0984 23.2418 40.8468 18.8477 33.9258 18.8477C30.6002 18.8477 28.3678 20.5109 27.4565 22.2404H27.45V19.2383H20.8094V41.3086H27.45V30.3505C27.45 27.4807 28.1805 24.7005 31.7377 24.7005C35.2465 24.7005 35.3602 27.9823 35.3602 30.5328V41.3086H42.0984V29.1664ZM50.8875 44.1406V5.85938C50.8875 2.62833 48.2592 0 45.0281 0H6.74689C3.51584 0 0.887512 2.62833 0.887512 5.85938V44.1406C0.887512 47.3717 3.51584 50 6.74689 50H45.0281C48.2592 50 50.8875 47.3717 50.8875 44.1406ZM45.0281 3.90625C46.105 3.90625 46.9813 4.78249 46.9813 5.85938V44.1406C46.9813 45.2175 46.105 46.0938 45.0281 46.0938H6.74689C5.67 46.0938 4.79376 45.2175 4.79376 44.1406V5.85938C4.79376 4.78249 5.67 3.90625 6.74689 3.90625H45.0281Z"
        fill="currentColor" />
</svg>