<svg viewBox="0 0 50 50" fill="currentColor" xmlns="http://www.w3.org/2000/svg">
    <path
        d="M42.788 7.21498C39.0138 3.44079 34.9822 5.88358 32.4591 8.40669L8.62439 32.2421C6.1013 34.765 3.46044 38.5983 7.4327 42.57C11.405 46.5431 15.2383 43.9017 17.7608 41.3786L41.596 17.5437C44.1191 15.0204 46.562 10.9886 42.788 7.21498Z"
        fill="currentColor" />
    <path
        d="M20.0166 6.2384L25.0636 11.2851L30.2008 6.14793C30.5495 5.79833 30.9036 5.47392 31.2599 5.16797C30.722 2.45376 29.1732 0 25.0612 0C20.9413 0 19.3946 2.4634 18.8594 5.1835C19.2441 5.51622 19.6279 5.84973 20.0166 6.2384Z"
        fill="currentColor" />
    <path
        d="M30.1978 43.7267L25.0638 38.5925L20.0195 43.6363C19.6365 44.0196 19.2553 44.3697 18.8758 44.6986C19.4542 47.4655 21.0912 49.9999 25.0617 49.9999C29.0425 49.9999 30.6774 47.452 31.2521 44.6761C30.8991 44.3724 30.5457 44.0744 30.1978 43.7267Z"
        fill="currentColor" />
    <path
        d="M17.876 18.4729H8.14609C4.57854 18.4729 0 19.5968 0 24.9338C0 28.9159 2.54879 30.5512 5.32509 31.1256C5.65379 30.746 17.876 18.4729 17.876 18.4729Z"
        fill="currentColor" />
    <path
        d="M44.8179 18.7324C44.51 19.0905 32.2621 31.3948 32.2621 31.3948H41.8539C45.4217 31.3948 50 30.5519 50 24.9342C50 20.815 47.5374 19.2673 44.8179 18.7324Z"
        fill="currentColor" />
    <path
        d="M21.064 15.279L22.8023 13.5408L17.7585 8.49631C15.2352 5.97344 11.4024 3.33231 7.43011 7.3046C4.51729 10.2174 5.16426 13.0523 6.70926 15.3537C7.17983 15.319 21.064 15.279 21.064 15.279Z"
        fill="currentColor" />
    <path
        d="M29.0615 34.5883L27.3188 36.3311L32.4564 41.4683C34.9794 43.9917 39.0112 46.4338 42.7848 42.6602C45.6008 39.8441 44.9546 36.8862 43.3978 34.5168C42.8967 34.553 29.0615 34.5883 29.0615 34.5883Z"
        fill="currentColor" />
</svg>