<svg viewBox="0 0 56 50" fill="currentColor" xmlns="http://www.w3.org/2000/svg">
    <path
        d="M1.69478 44.4739C6.84034 48.0896 12.8288 50 19.0118 50C28.0663 50 36.3636 46.1484 42.3775 39.1555C48.1321 32.4627 51.2977 23.4697 51.1403 14.3433C53.3217 12.2764 55.8875 8.32997 55.8875 4.48351C55.8875 3.00903 54.4425 2.07306 53.2707 2.8244C51.2213 4.15784 49.3525 4.50659 47.4305 3.9091C43.5053 -0.327137 37.6627 -1.21952 32.7395 1.71918C28.4368 4.28349 26.0447 8.97618 26.2601 14.1048C18.991 13.1227 12.2754 9.08644 7.59295 2.81414C6.82413 1.79098 5.36522 1.91151 4.75386 3.07057C2.49834 7.34784 2.5215 12.3047 4.48292 16.3075C3.54968 16.4896 2.97307 17.3589 2.97307 18.3C2.97307 22.3234 4.60797 26.0211 7.24096 28.5444C6.75002 29.0675 6.58792 29.8445 6.79634 30.5369C7.9542 34.3885 10.5756 37.399 13.8524 38.9068C10.2885 40.7916 6.34709 41.4198 2.83875 40.9429C1.02322 40.671 0.127032 43.3738 1.69478 44.4739ZM19.4865 39.5658C20.7857 38.4606 20.0956 36.1579 18.4653 36.1194C15.5938 36.0527 12.9793 34.4859 11.3514 32.0216C12.1364 31.9652 12.9492 31.8319 13.7227 31.6011C15.485 31.0728 15.4016 28.2572 13.6115 27.8598C10.3626 27.1366 7.81294 24.5159 6.85655 21.1413C7.72958 21.3797 8.61882 21.5131 9.50574 21.531C11.2634 21.5413 11.928 19.0462 10.4946 18.0025C7.26411 15.6459 5.88626 11.4841 6.79865 7.57094C12.4398 13.8997 20.0933 17.7128 28.1891 18.1436C29.3492 18.2231 30.22 17.0153 29.9652 15.7921C28.8653 10.5122 31.5283 6.8119 34.3883 5.10664C37.2181 3.41419 41.7616 2.88594 45.2444 6.93242C46.2795 8.14021 49.7717 8.18637 51.5478 7.72736C50.7512 9.38903 49.5262 10.9661 48.3799 11.8533C47.8913 12.2329 47.6111 12.8637 47.6412 13.5227C48.014 21.9465 45.1796 30.3215 39.865 36.4989C34.511 42.7225 27.1076 46.151 19.0141 46.151C15.7953 46.151 12.6389 45.5714 9.65627 44.4534C13.2225 43.6892 16.6104 42.0173 19.4865 39.5658Z"
        fill="currentColor" />
</svg>