<svg width="130" height="118" viewBox="0 0 130 118" fill="currentColor" xmlns="http://www.w3.org/2000/svg">
    <g clip-path="url(#clip0_8_6)">
        <path d="M130 0H0V117.944H130V0Z" fill="#150C21" />
        <path
            d="M106.387 12.8837C109.101 12.1734 111.577 14.6483 110.866 17.3626L88.4713 102.934C87.7537 105.676 84.3313 106.604 82.3273 104.599L19.1506 41.4229C17.1465 39.4188 18.0743 35.996 20.8161 35.2785L106.387 12.8837Z"
            fill="currentColor" />
        <path
            d="M97.7059 21.4398C100.42 20.7295 102.895 23.2044 102.185 25.9186L85.4791 89.7503C84.7614 92.4924 81.339 93.4202 79.335 91.4162L32.2084 44.2895C30.2043 42.2855 31.1322 38.8627 33.874 38.1451L97.7059 21.4398Z"
            fill="#150C21" />
        <path
            d="M72.2003 78.4571C68.5351 78.4571 65.4009 77.448 62.7983 75.4293C60.1957 73.4107 58.2038 70.6487 56.8225 67.1429C55.4947 63.6371 54.8306 59.6532 54.8306 55.1913C54.8306 50.1982 55.999 45.4706 58.3364 41.0087C60.6738 36.4937 63.7277 32.8816 67.4993 30.1726C71.3238 27.4105 75.2809 26.0294 79.3712 26.0294C82.8241 26.0294 85.4797 26.7996 87.339 28.34C89.1983 29.8805 90.1277 31.6865 90.1277 33.7581C90.1277 34.9798 89.756 36.0953 89.0122 37.1045C88.3218 38.1137 87.3122 38.884 85.9845 39.4152C85.8251 39.0965 85.7454 38.5918 85.7454 37.9013C85.7454 37.2639 85.8251 36.6265 85.9845 35.989C86.0909 35.1392 86.1438 34.5283 86.1438 34.1565C86.1438 33.6253 86.0641 33.1737 85.9048 32.8019C85.1609 30.9428 83.1428 30.0132 79.8493 30.0132C78.9461 30.0132 77.8841 30.0929 76.6622 30.2523C73.8467 30.6241 71.058 32.0317 68.2961 34.4752C65.5341 36.8655 63.2764 39.8667 61.5235 43.4787C59.7706 47.0908 58.8941 50.7825 58.8941 54.5539C58.8941 57.8474 59.4251 60.981 60.4877 63.9558C61.6032 66.8771 63.1967 69.2412 65.2683 71.0471C67.3399 72.8529 69.8099 73.7561 72.6783 73.7561C76.3964 73.7561 79.4776 73.3048 81.9209 72.4016C84.4176 71.4984 86.8609 70.1177 89.2512 68.2584C89.517 68.0461 89.809 67.9397 90.1277 67.9397C90.7122 67.9397 91.1105 68.2851 91.3228 68.9755C91.5886 70.2503 90.7384 71.6316 88.7732 73.1187C86.808 74.6058 84.2583 75.8807 81.1241 76.9432C77.99 77.9523 75.0157 78.4571 72.2003 78.4571Z"
            fill="currentColor" />
    </g>
    <defs>
        <clipPath id="clip0_8_6">
            <rect width="130" height="117.944" fill="currentColor" />
        </clipPath>
    </defs>
</svg>