<svg width="23" height="23" viewBox="0 0 23 23" fill="none" xmlns="http://www.w3.org/2000/svg">
<path d="M17.8893 10.6025L7.65403 0.367436C7.4173 0.130519 7.10128 0 6.76433 0C6.42737 0 6.11136 0.130519 5.87463 0.367436L5.12087 1.12101C4.63039 1.61204 4.63039 2.41012 5.12087 2.90041L13.7157 11.4952L5.11133 20.0996C4.8746 20.3365 4.7439 20.6523 4.7439 20.9891C4.7439 21.3263 4.8746 21.6421 5.11133 21.8792L5.86509 22.6326C6.10201 22.8695 6.41783 23 6.75479 23C7.09175 23 7.40776 22.8695 7.64449 22.6326L17.8893 12.3881C18.1266 12.1504 18.2569 11.8331 18.2562 11.4958C18.2569 11.1572 18.1266 10.84 17.8893 10.6025Z" fill="white"/>
</svg>
