<svg width="40" height="33" viewBox="0 0 38 38" fill="none" xmlns="http://www.w3.org/2000/svg">
<path d="M32.1993 5.42922C29.3591 2.58903 26.3252 4.4273 24.4265 6.32602L6.49014 24.2629C4.59144 26.1614 2.60411 29.0461 5.59336 32.0349C8.58262 35.0248 11.4673 33.0371 13.3656 31.1384L31.3023 13.2019C33.201 11.303 35.0393 8.26902 32.1993 5.42922Z" fill="white"/>
<path d="M15.0631 4.69458L18.8611 8.4924L22.727 4.6265C22.9894 4.36342 23.2559 4.11929 23.524 3.88905C23.1192 1.84653 21.9537 0 18.8593 0C15.759 0 14.595 1.85378 14.1923 3.90074C14.4818 4.15112 14.7706 4.4021 15.0631 4.69458Z" fill="white"/>
<path d="M22.7248 32.9057L18.8613 29.0421L15.0653 32.8377C14.7771 33.1261 14.4902 33.3896 14.2046 33.6371C14.6399 35.7193 15.8718 37.6265 18.8597 37.6265C21.8554 37.6265 23.0857 35.7091 23.5182 33.6202C23.2525 33.3916 22.9866 33.1674 22.7248 32.9057Z" fill="white"/>
<path d="M13.4522 13.9014H6.13018C3.44549 13.9014 0 14.7472 0 18.7634C0 21.7601 1.91804 22.9907 4.00729 23.4229C4.25465 23.1373 13.4522 13.9014 13.4522 13.9014Z" fill="white"/>
<path d="M33.7268 14.0964C33.4951 14.3659 24.2782 23.6252 24.2782 23.6252H31.4963C34.1812 23.6252 37.6265 22.9909 37.6265 18.7634C37.6265 15.6636 35.7733 14.4989 33.7268 14.0964Z" fill="white"/>
<path d="M15.8513 11.4979L17.1594 10.1898L13.3638 6.3937C11.4649 4.49516 8.5806 2.50763 5.59135 5.4969C3.39937 7.6889 3.88623 9.8222 5.04889 11.5541C5.40301 11.528 15.8513 11.4979 15.8513 11.4979Z" fill="white"/>
<path d="M21.8697 26.0287L20.5582 27.3402L24.4244 31.2061C26.3231 33.105 29.3571 34.9428 32.1969 32.103C34.316 29.9838 33.8297 27.7579 32.6582 25.9749C32.2811 26.0021 21.8697 26.0287 21.8697 26.0287Z" fill="white"/>
</svg>
