<svg width="40" height="33" viewBox="0 0 40 40" fill="none" xmlns="http://www.w3.org/2000/svg">
<path d="M0.78828 32.6583C4.49161 35.0083 8.80161 36.25 13.2516 36.25C19.7683 36.25 25.7399 33.7467 30.0683 29.2017C34.2099 24.8517 36.4883 19.0067 36.3749 13.075C37.9449 11.7317 39.7916 9.16667 39.7916 6.66667C39.7916 5.70834 38.7516 5.1 37.9083 5.58834C36.4333 6.455 35.0883 6.68167 33.7049 6.29334C30.8799 3.54 26.6749 2.96 23.1316 4.87C20.0349 6.53667 18.3133 9.58667 18.4683 12.92C13.2366 12.2817 8.40328 9.65834 5.03328 5.58167C4.47995 4.91667 3.42995 4.995 2.98995 5.74834C1.36661 8.52834 1.38328 11.75 2.79495 14.3517C2.12328 14.47 1.70828 15.035 1.70828 15.6467C1.70828 18.2617 2.88495 20.665 4.77995 22.305C4.42661 22.645 4.30995 23.15 4.45995 23.6C5.29328 26.1033 7.17995 28.06 9.53828 29.04C6.97328 30.265 4.13661 30.6733 1.61161 30.3633C0.304947 30.1867 -0.340054 31.9433 0.78828 32.6583V32.6583ZM13.5933 29.4683C14.5283 28.75 14.0316 27.2533 12.8583 27.2283C10.7916 27.185 8.90995 26.1667 7.73828 24.565C8.30328 24.5283 8.88828 24.4417 9.44495 24.2917C10.7133 23.9483 10.6533 22.1183 9.36495 21.86C7.02661 21.39 5.19161 19.6867 4.50328 17.4933C5.13161 17.6483 5.77161 17.735 6.40995 17.7467C7.67495 17.7533 8.15328 16.1317 7.12161 15.4533C4.79661 13.9217 3.80495 11.2167 4.46161 8.67334C8.52161 12.7867 14.0299 15.265 19.8566 15.545C20.6916 15.5967 21.3183 14.8117 21.1349 14.0167C20.3433 10.585 22.2599 8.18 24.3183 7.07167C26.3549 5.97167 29.6249 5.62834 32.1316 8.25834C32.8766 9.04334 35.3899 9.07334 36.6683 8.775C36.0949 9.855 35.2133 10.88 34.3883 11.4567C34.0366 11.7033 33.8349 12.1133 33.8566 12.5417C34.1249 18.0167 32.0849 23.46 28.2599 27.475C24.4066 31.52 19.0783 33.7483 13.2533 33.7483C10.9366 33.7483 8.66495 33.3717 6.51828 32.645C9.08495 32.1483 11.5233 31.0617 13.5933 29.4683V29.4683Z" fill="white"/>
</svg>
